<?xml version="1.0" encoding="utf-8"?>
<!-- Generator: Adobe Illustrator 16.0.0, SVG Export Plug-In . SVG Version: 6.00 Build 0)  -->
<!DOCTYPE svg PUBLIC "-//W3C//DTD SVG 1.1//EN" "http://www.w3.org/Graphics/SVG/1.1/DTD/svg11.dtd">
<svg version="1.1" id="Layer_1" xmlns="http://www.w3.org/2000/svg" xmlns:xlink="http://www.w3.org/1999/xlink" x="0px" y="0px"
	 width="324px" height="324px" viewBox="0 0 324 324" enable-background="new 0 0 324 324" xml:space="preserve">
<path fill="#363636" stroke="#000000" d="M324,312c0,6.628-5.373,12-12,12H12c-6.627,0-12-5.372-12-12V12C0,5.373,5.373,0,12,0h300
	c6.627,0,12,5.373,12,12V312z"/>
<path fill="#FFFFFF" stroke="#000000" d="M173.504,324.959V199h-43v-49.333h43V99.997c0,0,1-65,101-49.333v45h-30.333
	c0,0-28.001-6.666-20.334,54.001h48l-5.333,50h-43v125.295"/>
</svg>
